PathFileType	4	(X/Y/Z)	 New Session 109.trc
DataRate	CameraRate	NumFrames	NumMarkers	Units	OrigDataRate	OrigDataStartFrame	OrigNumFrames
100	100	14	14	m	100	428	1141
Frame#	Time	C7			T8			IJ			PX			AA			AC			AI			TS			SC			GH			LE			ME			US			RS			
		X1	Y1	Z1	X2	Y2	Z2	X3	Y3	Z3	X4	Y4	Z4	X5	Y5	Z5	X6	Y6	Z6	X7	Y7	Z7	X8	Y8	Z8	X9	Y9	Z9	X10	Y10	Z10	X11	Y11	Z11	X12	Y12	Z12	X13	Y13	Z13	X14	Y14	Z14	
428	4.2800	0.009273	0.113245	0.140128	0.020859	-0.095828	0.225342	-0.016562	-0.007264	-0.013672	-0.007634	-0.154314	-0.066322	0.206387	0.050187	0.089966	0.133227	0.086268	0.037446	0.099252	0.047752	0.171578	0.110821	-0.069546	0.201546	0.007918	0.002837	-0.011476	0.203980	0.072084	0.049671	0.301522	-0.138962	-0.129945	0.234839	-0.207326	-0.130309	0.209663	-0.091639	-0.377959	0.187602	-0.018222	-0.352814	
429	4.2900	0.008951	0.113330	0.139658	0.020533	-0.095834	0.224930	-0.016349	-0.007290	-0.014182	-0.007494	-0.154359	-0.066843	0.205923	0.050065	0.091104	0.133510	0.086177	0.037632	0.098614	0.047991	0.171711	0.110199	-0.069600	0.201651	0.008176	0.002909	-0.011772	0.204270	0.071704	0.050728	0.303285	-0.144468	-0.121988	0.235901	-0.212079	-0.122106	0.209834	-0.094344	-0.368261	0.188779	-0.020908	-0.342209	
430	4.3000	0.008637	0.113409	0.139161	0.020214	-0.095831	0.224482	-0.016153	-0.007265	-0.014711	-0.007330	-0.154400	-0.067367	0.205508	0.049826	0.092250	0.133875	0.086065	0.037818	0.098025	0.048218	0.171839	0.109578	-0.069608	0.201805	0.008481	0.002974	-0.012090	0.204528	0.071157	0.051764	0.305113	-0.149699	-0.113869	0.236928	-0.216713	-0.113840	0.210176	-0.097142	-0.358471	0.189747	-0.023760	-0.331570	
431	4.3100	0.008328	0.113473	0.138672	0.019894	-0.095821	0.224014	-0.015989	-0.007198	-0.015241	-0.007150	-0.154430	-0.067883	0.205097	0.049527	0.093435	0.134328	0.085944	0.038001	0.097426	0.048378	0.171981	0.108965	-0.069619	0.201994	0.008769	0.002991	-0.012457	0.204769	0.070520	0.052829	0.306927	-0.154621	-0.105614	0.237972	-0.221243	-0.105480	0.210665	-0.100018	-0.348571	0.190578	-0.026748	-0.320899	
432	4.3200	0.008019	0.113515	0.138201	0.019550	-0.095813	0.223549	-0.015858	-0.007126	-0.015745	-0.006965	-0.154444	-0.068382	0.204646	0.049222	0.094676	0.134810	0.085806	0.038204	0.096769	0.048460	0.172158	0.108344	-0.069671	0.202212	0.008984	0.002953	-0.012908	0.205027	0.069884	0.053991	0.308618	-0.159276	-0.097225	0.239017	-0.225676	-0.096965	0.211254	-0.102957	-0.338525	0.191425	-0.029825	-0.310202	
433	4.3300	0.007715	0.113543	0.137747	0.019159	-0.095814	0.223115	-0.015731	-0.007093	-0.016211	-0.006786	-0.154441	-0.068860	0.204142	0.048946	0.095975	0.135231	0.085626	0.038453	0.096035	0.048504	0.172377	0.107684	-0.069774	0.202452	0.009151	0.002897	-0.013437	0.205261	0.069269	0.055241	0.310135	-0.163758	-0.088703	0.240018	-0.230002	-0.088237	0.211886	-0.105962	-0.328345	0.192438	-0.032943	-0.299489	
434	4.3400	0.007421	0.113583	0.137299	0.018717	-0.095825	0.222728	-0.015565	-0.007116	-0.016659	-0.006618	-0.154421	-0.069314	0.203599	0.048707	0.097306	0.135576	0.085396	0.038731	0.095227	0.048550	0.172592	0.106961	-0.069908	0.202703	0.009289	0.002857	-0.013981	0.205421	0.068668	0.056516	0.311510	-0.168151	-0.080038	0.240941	-0.234193	-0.079259	0.212508	-0.109061	-0.318107	0.193674	-0.036082	-0.288788	
435	4.3500	0.007132	0.113664	0.136844	0.018238	-0.095839	0.222383	-0.015340	-0.007178	-0.017122	-0.006467	-0.154382	-0.069747	0.203056	0.048499	0.098623	0.135895	0.085123	0.038991	0.094381	0.048598	0.172714	0.106168	-0.070038	0.202951	0.009408	0.002845	-0.014474	0.205547	0.068111	0.057762	0.312809	-0.172482	-0.071214	0.241779	-0.238215	-0.070020	0.213118	-0.112257	-0.307886	0.195096	-0.039254	-0.278147	
436	4.3600	0.006837	0.113793	0.136369	0.017745	-0.095842	0.222055	-0.015080	-0.007216	-0.017624	-0.006338	-0.154323	-0.070167	0.202566	0.048326	0.099886	0.136221	0.084786	0.039198	0.093561	0.048627	0.172688	0.105314	-0.070138	0.203185	0.009518	0.002855	-0.014891	0.205709	0.067614	0.058953	0.314088	-0.176698	-0.062217	0.242531	-0.242042	-0.060548	0.213760	-0.115528	-0.297727	0.196618	-0.042475	-0.267617	
437	4.3700	0.006541	0.113941	0.135862	0.017250	-0.095827	0.221717	-0.014834	-0.007169	-0.018176	-0.006234	-0.154250	-0.070590	0.202155	0.048185	0.101093	0.136590	0.084361	0.039346	0.092796	0.048616	0.172548	0.104420	-0.070209	0.203410	0.009627	0.002900	-0.015276	0.205936	0.067155	0.060111	0.315338	-0.180707	-0.053068	0.243176	-0.245674	-0.050906	0.214492	-0.118849	-0.287660	0.198130	-0.045760	-0.257227	
438	4.3800	0.006255	0.114062	0.135318	0.016752	-0.095791	0.221354	-0.014651	-0.007019	-0.018783	-0.006153	-0.154182	-0.071032	0.201809	0.048054	0.102279	0.137034	0.083843	0.039455	0.092072	0.048557	0.172385	0.103519	-0.070271	0.203637	0.009742	0.002992	-0.015751	0.206190	0.066672	0.061255	0.316540	-0.184430	-0.043817	0.243688	-0.249122	-0.041162	0.215406	-0.122195	-0.277669	0.199501	-0.049126	-0.246974	
439	4.3900	0.005987	0.114135	0.134742	0.016247	-0.095737	0.220965	-0.014555	-0.006802	-0.019440	-0.006090	-0.154153	-0.071511	0.201503	0.047900	0.103481	0.137553	0.083236	0.039557	0.091369	0.048469	0.172276	0.102637	-0.070351	0.203877	0.009817	0.003116	-0.016414	0.206427	0.066110	0.062403	0.317693	-0.187838	-0.034517	0.244082	-0.252371	-0.031374	0.216589	-0.125533	-0.267703	0.200610	-0.052585	-0.236817	
440	4.4000	0.005728	0.114175	0.134148	0.015732	-0.095669	0.220559	-0.014531	-0.006607	-0.020114	-0.006037	-0.154192	-0.072032	0.201217	0.047695	0.104717	0.138090	0.082522	0.039689	0.090674	0.048371	0.172232	0.101780	-0.070457	0.204129	0.009816	0.003206	-0.017183	0.206640	0.065447	0.063569	0.318795	-0.190945	-0.025205	0.244441	-0.255386	-0.021541	0.218036	-0.128825	-0.257721	0.201418	-0.056122	-0.226694	
441	4.4100	0.005472	0.114210	0.133540	0.015213	-0.095589	0.220149	-0.014540	-0.006533	-0.020755	-0.005988	-0.154304	-0.072584	0.200918	0.047430	0.106004	0.138575	0.081689	0.039886	0.089949	0.048254	0.172214	0.100930	-0.070578	0.204385	0.009776	0.003182	-0.017855	0.206841	0.064710	0.064772	0.319828	-0.193788	-0.015879	0.244858	-0.258142	-0.011601	0.219572	-0.132046	-0.247750	0.202026	-0.059684	-0.216570	
